<?xml version="1.0" encoding="utf-8"?>
<!-- Generator: Adobe Illustrator 18.1.1, SVG Export Plug-In . SVG Version: 6.00 Build 0)  -->
<svg version="1.1" id="レイヤー_1" xmlns="http://www.w3.org/2000/svg" xmlns:xlink="http://www.w3.org/1999/xlink" x="0px"
	 y="0px" viewBox="0 0 533.9 914.2" enable-background="new 0 0 533.9 914.2" xml:space="preserve">
<g>
	<g>
		<path fill-rule="evenodd" clip-rule="evenodd" fill="#F70000" d="M440,152.5c-10.8,31.1-23.4,64.5-44.3,90.4
			c-15.2,18.8-34.3,33.2-51.4,50.1c-15.4,15.2-29,33-39.5,52c-23,41.6-40.4,85.4-56.3,130.1c-6.2,17.4-17.7,34.4-30.6,47.6
			c-7.5,7.7-15.2,16.1-24.5,21.6c-4.9,2.9-9.4,6.2-14.5,8.8c-5.5,2.7-3.4,9.6-3.6,15.3c-0.5,20.2-6.4,40.5-16.7,57.8l-5.4,9.1
			c1.5-4,21.4-1.4,25.7-1.4c5.8,0,17.4,0.8,21.9-2.2c26.6-17.7,42.4-40.3,38.7-73c-10.5,3.4-21.2,7.2-32.2,8.7
			c-10,1.4-19.6,1.4-29.6,1.9c26.2-4.4,57.8-8.4,79.7-25c22.2-16.9,30-38,35.3-64.9c-7.8,4.5-15.3,9.4-23.6,13
			c-8.3,3.7-17.3,5.5-25.6,8.9c25.9-11.9,52.2-25.4,72.7-45.9c10.1-10.1,20.2-20.5,26.1-33.8c6-13.6,5.2-27.1,4-41.5
			c-10,6.9-20.1,12.8-30.9,18.3c-9.6,4.9-19.5,7-29.3,11c28-12.7,51.5-28.3,75.5-47.6c9.6-7.8,18.9-19.9,23.8-31.3
			c4.6-10.8,4.4-21.4,4-33c-17.7,14.1-35.8,28.3-57.7,35c17.6-7.4,31.8-20.6,47.2-31.5c15-10.6,30.6-25.6,40.2-41.3
			C438.7,228.4,443.4,188.6,440,152.5z"/>
		<path fill-rule="evenodd" clip-rule="evenodd" fill="#F70000" d="M52.9,737.5c-4.4-2.2-14.8-9.8-18.8-7.6
			c-5.5,3.1-11.2,5.7-17.4,7.1c-3.1,0.7-6,1.4-9.1,1.8c-6.2,1-5.1,1.4-5.7,7.7c-0.6,6.5-1,6.7,4.5,10c3,1.8,6.2,3.1,9.5,4.2
			c5.3,1.9,11.7,4.1,17.5,3.7c8.7,0.2,16.9-4.1,22.4-11c2.7-3.3,4.4-6.9,6.2-10.8C62.5,741.6,54.5,738.3,52.9,737.5z"/>
		<path fill-rule="evenodd" clip-rule="evenodd" fill="#F70000" d="M196,638c-3.8,0.2-12.5-0.1-17.1-0.1c-5.6,0-14.4-0.6-26.5,0.9
			c0,0-6.9,6.8-11.4,12.7c-11,14.4-25.9,24.8-39.5,36.8c11.3,2.2,22.6,4.2,34,6c9.5-2.9,18.3-6,27.2-10.4c7.3-3.6,12-8.1,18.4-12.6
			c4.4-3.2,8.5-10.4,10.2-15C195.3,645.2,199.9,637.8,196,638z"/>
		<path fill-rule="evenodd" clip-rule="evenodd" fill="#F70000" d="M103.7,691.4c-4.9-1.1-5.7-1.8-10.2,0.7
			c-3.9,2.1-7.8,4.2-11.5,6.5c-14.2,8.7-27.2,18.9-41.2,27.8c9.4,4.5,18.9,8.8,28.5,13c8.8-0.9,17.1-2.1,25.6-4.5
			c7-2,12-5.4,18.3-8.5c4.4-2.2,8-8.8,10.1-13c1.4-3,5.1-14.8,2.9-17.5C123.8,693,107.6,692.3,103.7,691.4z"/>
	</g>
	<path fill-rule="evenodd" clip-rule="evenodd" fill="#F70000" d="M332.6,474.2"/>
	<path fill-rule="evenodd" clip-rule="evenodd" fill="#F70000" d="M337.7,611.4c2.5-4.2,5.2-7.7,6.7-12.4c1.7-5.6,0.1-6.1-4.4-10.2
		c-6.2-5.4-14.7-10.6-22.9-12.4c-7.1-1.5-21.9,6.6-29,9.4c-9.5,3.8-20.6,7.7-30.8,8.8c-3,0.3-12.2,0.4-14.5,1.9
		c-2.4,1.6-5,10-6.9,12.8c-5.6,8.4-13.4,15-20.8,21.8c29.2-5.8,57.9-14.7,85.4-26c-23.1,19.5-53.2,25.7-82.1,30.3
		c-6.1,1-7.9-0.5-12.6,4.2c-1.6,1.6-1.4,5.6-1.9,7.8c-1.4,5.7-3.6,10.3-6.3,15.4c-6,11.5-16.9,18.9-28,24.8
		c32.1,2.7,63.4,1.1,95.6-1.2c-22,9-47.3,11.6-71,9c-11.9-1.3-25.1-6.7-36.3-2.9c-6.3,2.2-12.7,3.9-19.1,5.7
		c-4.3,1.2-4.4,0.4-5.1,4.9c-0.4,2.5-0.7,4.9-1.8,7.3c31.4,8.9,63.3,11.8,95.2,11.8c18.6,0.7,37.7-3.4,54.8-10.5
		c8.8-3.7,16.7-9.1,23.3-16c3.3-3.4,6.1-6.9,8.5-11c2.7-4.8-0.3-6.6-4.1-10.5c-6.5-6.7-14.9-13.3-23.8-16.5
		c-10.2-3.6-20.8,3.6-31.2,4.8c-18.9,2.1-38.2,7.3-57.2,2.7c33.4,0.7,67.5-8.2,98.3-20.5C311.8,638.3,328.7,626.8,337.7,611.4z"/>
	<path fill-rule="evenodd" clip-rule="evenodd" fill="#F70000" d="M358.3,533.8c6.2-7.8,11.8-15.9,16.6-24.6c2-3.6,7-9.8,4.9-13.8
		c-1.5-2.8-3.6-4.3-5.7-6.5c-6.5-7-12.1-5.2-19.3-0.7c-8.2,5.2-16.7,9.8-25.5,14.1c-8.1,4-16.1,8-24.9,10.1
		c-8.3,2-13.1,1.2-16.5,9.1c-1.5,3.6-3.6,6.9-5.7,10.1c-4.2,6.4-10,10.7-15.2,16.1c-3.2,3.3-20.6,10.5-20.1,13.6
		c31.6-10.6,62.6-24,91.1-41.5c-25.4,23.5-56.1,39.6-90.7,44.3c2.3,9.1,1.1,21.5-3.3,29.6C286.1,586.6,331,567.8,358.3,533.8z"/>
	<path fill-rule="evenodd" clip-rule="evenodd" fill="#F70000" d="M179.7,780c14,0,28.5-2.4,41.1-8.5c2.2-1.1,5.6-2.4,7.4-4.1
		c3.2-3,2.6-3.9,1.2-8.5c-2.2-7.2-5.4-13.8-9.3-20.3c-2.2-3.6-4.4-7.1-6.9-10.4c-1.5-1.9-9.4-0.9-12.2-1.2c-8.1-0.7-16-1.8-24.1-2.6
		c-15.5-1.4-31.5-6-45.4-12.7c-2.3,5.7-5.1,14.1-11,17.1c25.8,12.9,55.1,20.6,83,27.7c-24.2,0-45.6-5.2-67.9-14.6
		c-6.4-2.7-12.3-6-18.3-9.5c-0.4-0.2-10.1,5.8-11.8,6.7c-9.6,4.9-22,5.3-32.5,5.7C103.9,763.1,142.6,781.5,179.7,780z"/>
	<path fill-rule="evenodd" clip-rule="evenodd" fill="#F70000" d="M55.7,804.2c1.8-3.4,3.1-3.9,0.7-6.7c-2.6-3-5.2-6-7.8-9
		c-2.4-2.8-4.3-6.5-6.9-9c-1.9-1.8-3.2-4.4-4.7-6.6c-1.2-1.7-6.9-0.4-8.9-0.6c-8.7-0.9-20.4-3.2-28-7.7c2.6,16.5,6.3,31.2,15,45.5
		c3.9,6.4,8.9,14.6,17.1,15.4c6.2,0.5,10.7-3.2,14.6-7.7C50.4,813.7,53.1,809.1,55.7,804.2z"/>
	<path fill-rule="evenodd" clip-rule="evenodd" fill="#F70000" d="M371.5,412.9c8.2-6.7,15.3-14.7,23.1-21.8
		c7.7-7,18.9-16.7,23.5-25.9c12.8-25.7,49.4-90.5,9.4-107c-2.8,6.4-6.8,11.9-11.3,17.3c-5.2,6.3-12.6,12-17.2,18.5
		c-4.2,6.1-2.3,19.4-3.5,27.4c-1.1,7.6-3.6,17.1-8.8,23c12.2-12.1,24.4-24.1,36.6-36.2c-9.2,17-21.2,33.2-36.7,45.2
		c-7.7,5.9-17.5,11.1-24.2,17.8c-4.6,4.6-9.3,6.9-8.5,13.5c0.5,4.2,1.1,9,0.5,13.2c-1.5,10.5-2,20.4-7.4,30
		c-1.1,1.9-2.3,3.8-3.5,5.7c0.2-0.2,0.5-0.4,0.7-0.6C353.4,426.4,362.7,420,371.5,412.9z"/>
	<path fill-rule="evenodd" clip-rule="evenodd" fill="#F70000" d="M129.3,796.3c-0.7-6.3-1.8-18.2-6.9-22.8
		c-4.8-4.3-16.4-7.1-22.5-9.9c-6.5-3-13.6-6.8-19.3-11.1c-2.3-1.8-8.6-8.8-11.8-7.5c-1.3,0.5-3.9,9.3-5.1,11
		c-3,4.3,10.9,15,14.9,18.7c12.7,11.5,25.5,22.9,39,33.4c-23.4-5.9-43.7-28.1-59.4-45.1c-5.3,5.3-10.2,7.4-17.5,8.9
		c12.2,16.4,24.5,30,42.1,40.5c13.6,8,30.8,9.5,46.2,9.5C128.4,813.4,130.3,804.9,129.3,796.3z"/>
	<path fill-rule="evenodd" clip-rule="evenodd" fill="#F70000" d="M513.2,170c-17.4,0.3-25.5,23.2-34.1,35.1
		c-10.8,14.8-20.4,30.2-34.7,42.2c1.1-1.5,2.3-3,3.4-4.5c26.1-33.9,48-74.2,62.8-114.3C525.9,87.2,536,44.4,533.5,0
		c-21.4,53.8-41.5,109.9-75.2,157.5c-2.7,3.8-8,9.2-9.4,13.7c-1.3,4.4-0.1,11.2-0.5,15.9c-0.8,10.4-2.6,20.2-4.3,30.5
		c-1.6,10.2-5.7,21.7-10,31.1c-2.4,5.4,4,6.3,7.7,10.5c2.8,3.3,4.8,6.7,6.2,10.8c6.6,19-1.5,41.9-8.2,59.8
		c-3.7,9.7-8.1,19.2-12.5,28.6c-2.1,4.5-4.6,8.7-6.8,13.1c-3,5.9-2,9.1-0.9,15.7c15.9-17,31.9-34.5,45.1-53.7
		c-2.2,13.8-14.1,28.7-22.8,39.1c-4.9,5.9-10.1,11.8-15.9,17c-2.8,2.5-6,4-6.2,7.9c-0.2,4,0.2,8.4-1.1,12.2
		c-4.8,14.1-8.8,28.3-18.6,40c-8.9,10.5-17.5,21.7-29,29.5c4.4,2.1,8.4,5.4,11,9.3c17-12.1,33.6-24.3,49.6-37.8
		c-8.9,10.8-16.8,20.7-27.6,30.1c-3,2.6-5.9,5-9.3,7.1c-2.1,1.3-8.2,4.3-9.4,6.2c-0.7,1.1-0.7,7.5-1.5,9.8c-1.1,2.9-2.2,6.1-3.8,8.8
		c-14,24.6-34.5,42.2-56.1,60.3c7.4,1.5,14.4,5.9,19.7,11.2c4.2,4.2,5,11.3,11.2,8.1c5-2.5,9.9-5.3,14.9-7.9
		c20.1-10.8,38-25.3,56.7-38.2c-9.5,11.2-18.8,21.8-31.1,30.1c-5.6,3.8-11.4,7.2-17.3,10.5c-6.7,3.8-14.5,6-20.9,10
		c-5.3,3.2-6.7,1.7-9.2,8c-1.4,3.5-3.3,6.7-5,10c-3.2,6.5-9.7,12.3-15.3,16.7c-11.5,9.2-25.1,15.7-38.6,21.6
		c8.2,4.3,16.5,8.7,23.2,15.4c3,3,5.8,6.4,8.1,10c2.8,4.4,2.9,5.1-0.4,9.5c29.2,0,58.2-3.2,87-7.7c-15.5,7.7-31.9,11.1-49.1,12.7
		c-9.3,0.9-19.3,1.5-28.6,0.4c-3.9-0.5-8-0.1-11.8-1.1c-1.6-0.5-6.9,7.5-8.6,9.2c-24.2,23.2-57.1,26.4-89,26.4
		c6.8,6.8,12,16,15.8,24.8c2.1,4.9,1,9.1,6.6,10.3c5.1,1.2,10.2,1.9,15.4,2.8c21,3.6,43.4,6,64.7,6c-26.4,8.1-56.9,3.6-82.9-4
		c-0.7,5.2-19.3,10.3-24.4,12.3c-8.5,3.2-18.4,5.6-27.5,5.6c-10,0-19.4,0.4-29.4-0.8c-10-1.2-19.1-5-28.9-6.5
		c3.6,15,9,31.1,3.8,46.6c-3.2,9.6-44.3-4.2-51.4-6.7c11,13,22.8,24.8,34.8,36.8c11.3,11.3,24.9,20.2,36.4,31.1
		c-12.1-2.4-24.5-12.8-33.7-20.4c-10.5-8.6-20-18.2-28.5-28.9c-5.3-6.7-9.2-16.7-15.9-21.2c-4.2-2.8-9.2-5-13.6-7.5
		c-2-1.2-6.5,8.1-8.2,10.1c-1.2,1.5-8.7,9.8-7.9,11c2.6,3.8,5.4,7.5,7.8,11.5c5.1,8.5,11.8,15.8,18.3,23.1
		c29.7,33.3,69.1,45.5,112.2,50.2c-5.3-31.1-27.6-56.8-44.3-82.5c9.5,11.1,21.2,20.1,33.9,27.2c18.9,10.5,39.3,17.3,60.8,19.9
		c9.6,1.2,20,1.5,29.5-0.1c5.4-0.9,10.5-2.1,15.8-3.6c6.7-2,5.4-5.6,3.9-12.1c-8.6-38.2-59.5-60.9-91.9-74.1
		c31.9,10.2,65.6,19.7,99.4,16.9c22.7-1.9,44.6-8.1,62.9-22.2c4.5-3.5,8.8-7.2,12.9-11c0.9-0.8-1.2-4.9-1.8-6.1
		c-2.4-4.8-6.5-8.6-10.8-11.8c-6-4.5-12.7-7.6-19.8-9.9c-8.6-2.8-20.1,0.1-29,0.1c-21.5,0-41.8-3.3-62.2-10.2
		c39.5,7.2,79.9,4.8,118.6-5.6c18.3-4.9,36.1-13,52.2-22.9c16.4-10.1,27.5-22.1,38.2-37.8c-23.7-7.9-49.1-13-74.2-13
		c-25.6,0-51.1,2.1-76.6,2.1c37.5-6,70-20.3,99-45.1c29.4-25.1,51-57.7,68.1-92c-16-6.8-34.6-6.4-50.5,0.5
		c-14.4,6.2-31.8,17.6-47.9,17c38.3-15.6,64.9-44.4,84.5-80.3c4.8-8.8,8.5-18,13-26.9c1.1-2.3,6.7-10.8,3.6-11.8
		c-2.7-0.9-4.8-1-7.7-1c-18.2,0-36,9.9-52.6,16.3c4.7-3.4,8.8-7.3,12.9-11.3c30.8-30.2,52.3-66.2,71.4-104.5
		c1.8-3.6,13.9-24.4,11.7-27.3c-2.8-3.6-14,2.6-16.3,3.7c-18.2,8.8-34.1,22.7-49.6,35.4c17.7-24.5,32.5-51.1,46-78.1
		C499.6,225.8,506.9,198.5,513.2,170z M191.7,818.7c15.8,9,32.1,17,48.6,24.8c-19.2-1.6-38.4-10.4-54.5-20.5
		c-13.7-8.6-31.7-19.6-39.4-34.5C159.4,800.6,176.4,809.9,191.7,818.7z"/>
	<path fill-rule="evenodd" clip-rule="evenodd" fill="#F70000" d="M390.1,453.7c6.8-7.3,7-9.1,12.5-17.4c3.8-5.8,8-13.7,9.6-20.6
		c1.4-6,2.4-12.5,2.3-17.6c-0.2-8.8-3.4-15.4-3.4-15.4c-8.2,5.2-19.7,20.8-30.1,28.9c-7.1,5.5-12.4,9.7-24.6,18.3
		c-7,4.9-16.4,8.1-17.2,10.8c-1,3.7-3.6,6.9-5.7,10.1c-4.2,6.4-10,10.7-15.2,16.1c-3.2,3.3-20.6,10.5-20.1,13.6
		c31.6-10.6,53.7-27.3,82.2-44.8c-25.4,23.5-47.2,42.9-81.8,47.6c0.2,10.1-2.5,19.1-5.7,27.2C330.3,499,361.9,484.2,390.1,453.7z"/>
</g>
</svg>
